# Blender v2.93.5 OBJ File: ''
# www.blender.org
mtllib building.mtl
o Cube_Cube.003
v -0.996973 -1.000000 -2.498486
v 2.498486 -1.000000 0.996973
v 1.691705 -1.000000 -2.498486
v 2.498486 -1.000000 -1.691705
v 0.746222 1.087878 -0.446996
v 1.000000 1.087878 1.000000
v -1.000000 1.087878 -1.000000
v 0.446996 1.087878 -0.746222
v 0.746222 2.602531 -0.446996
v 1.000000 2.602531 1.000000
v -1.000000 2.602531 -1.000000
v 0.446996 2.602531 -0.746222
v -0.961721 2.670022 -0.954423
v -1.000000 2.631742 -1.000000
v 1.000000 2.631742 1.000000
v 0.954423 2.670022 0.961721
v 0.446996 2.631742 -0.746222
v 0.428477 2.670022 -0.710606
v 0.710606 2.670022 -0.428477
v 0.746222 2.631742 -0.446996
v -1.000000 1.028154 -1.000000
v -0.999966 0.977689 -1.016716
v -1.000000 1.000000 -0.971846
v 1.016717 0.977689 0.999966
v 1.000000 1.028154 1.000000
v 0.971846 1.000000 1.000000
v 0.746222 1.028154 -0.446996
v 0.763648 0.980111 -0.459374
v 0.459374 0.980111 -0.763648
v 0.446996 1.028154 -0.746222
v 1.795871 -0.897385 0.571577
v 1.795871 -0.517155 0.571577
v 1.795871 -0.297776 0.265365
v 1.795871 -0.407466 0.530552
v 1.795871 -0.327167 0.418471
v 1.795871 -0.897385 -0.571577
v 1.795871 -0.297776 -0.265365
v 1.795871 -0.517155 -0.571577
v 1.795871 -0.327167 -0.418471
v 1.795871 -0.407466 -0.530552
v 1.795871 -1.000000 0.533199
v 2.498486 -1.000000 0.533199
v 2.498486 -1.000000 -0.533199
v 1.795871 -1.000000 -0.533199
v 2.421603 -0.897385 0.571577
v 2.136718 -0.517155 0.571577
v 1.994371 -0.327167 0.418471
v 2.054534 -0.407466 0.530552
v 1.972350 -0.297776 0.265365
v 1.994371 -0.327167 -0.418471
v 2.421603 -0.897385 -0.571577
v 2.136718 -0.517155 -0.571577
v 1.972350 -0.297776 -0.265365
v 2.054534 -0.407466 -0.530552
v -0.960635 -1.000000 0.999966
v -0.999966 -1.000000 0.960635
v -0.960598 1.000000 1.000000
v -1.000000 1.000000 0.960598
v -1.000000 1.087878 0.960483
v -0.960483 1.087878 1.000000
v -1.000000 2.602531 0.960281
v -0.960281 2.602531 1.000000
v -0.959976 2.631742 1.000000
v -1.000000 2.631742 0.959976
v -0.961721 2.670022 0.921426
v -0.921426 2.670022 0.961721
vt 1.262837 1.792880
vt 1.325768 0.837167
vt 2.014500 0.830085
vt 2.510060 1.792880
vt 0.493015 0.806737
vt 0.335696 0.797006
vt 0.335963 0.769229
vt 0.493282 0.778960
vt 0.500057 0.074526
vt 0.342738 0.064796
vt 0.342868 0.051211
vt 0.500187 0.060941
vt 1.177449 0.814989
vt 1.177716 0.787212
vt 2.009456 0.807305
vt 1.326411 0.813276
vt 1.326271 0.785467
vt 2.009315 0.779496
vt 0.039620 -0.718763
vt 0.039602 -1.651193
vt 1.652296 -1.651193
vt 0.961473 -0.729165
vt 0.940554 -0.718763
vt -0.911180 0.028361
vt 0.002732 0.028361
vt 0.002590 0.041979
vt -0.911180 0.041979
vt 2.005753 0.074242
vt 1.322709 0.080213
vt 1.322640 0.066612
vt 2.005684 0.060642
vt 1.184490 0.082779
vt 1.184621 0.069192
vt -1.243522 1.673026
vt -1.077863 2.651193
vt -1.609797 2.651193
vt -1.444138 1.673026
vt 0.002826 -0.677793
vt -0.911180 -0.677793
vt -0.911180 -0.705637
vt -0.898054 -0.718763
vt 0.002880 -0.718763
vt -1.608385 1.673026
vt -1.609781 0.060332
vt -1.591444 0.041995
vt 0.021250 0.043391
vt 0.021250 1.296892
vt -0.354884 1.673026
vt -0.894997 1.673026
vt -0.894997 1.345456
vt -1.392167 1.345456
vt -1.392167 1.673026
vt 0.556229 1.806969
vt 0.021250 1.806969
vt 0.488199 0.829647
vt 1.178277 0.839003
vt 1.262837 1.806969
vt 1.048674 1.806969
vt 1.061937 1.756744
vt 1.045414 1.570644
vt 1.021703 1.516957
vt 0.966456 1.477655
vt 0.894477 1.463270
vt 0.649394 1.463270
vt 0.579970 1.477655
vt 0.531702 1.516957
vt 0.517524 1.570644
vt 0.534047 1.756745
vt 0.039673 -0.677793
vt 0.953680 -0.677793
vt 0.953679 0.028360
vt 0.039767 0.028360
vt 0.953679 0.041979
vt 0.039909 0.041979
vt 2.563477 -0.736610
vt 1.688929 -0.736610
vt 1.670143 -0.755396
vt 1.670143 -1.629945
vt 2.318273 -1.516274
vt 2.449806 -1.384741
vt 2.584726 -0.718764
vt 1.670956 -0.718764
vt 2.326908 -1.532878
vt 2.466411 -1.393375
vt 1.342428 0.047716
vt 1.998662 0.041980
vt 0.506632 0.041980
vt 1.164200 0.049908
vt 1.652296 -0.737423
vt 1.652296 -1.651193
vt -0.918973 -0.729165
vt 0.953680 -0.705638
vt 0.328227 0.819753
vt -0.574463 1.707146
vt -0.574463 1.997410
vt -0.751506 1.998305
vt -0.751506 1.840193
vt 1.978886 -0.347695
vt 1.978886 -0.595129
vt 2.061164 -0.595129
vt 2.061164 -0.347695
vt 1.978886 -0.206437
vt 1.931163 -0.189173
vt 1.754325 -0.190874
vt 1.703311 -0.210309
vt 1.665966 -0.262425
vt 1.652297 -0.333259
vt 1.652297 -0.578341
vt 1.665966 -0.648911
vt 1.703311 -0.700310
vt 1.754325 -0.718763
vt 1.931163 -0.717063
vt 1.978886 -0.698881
vt -0.852757 2.000593
vt -1.030026 2.000593
vt -1.030026 1.708868
vt -0.852757 1.841685
vt -1.077864 2.000597
vt -1.077864 1.673026
vt 1.978886 -0.666510
vt 2.071430 -0.666510
vt 1.978886 -0.718763
vt 2.099479 -0.718763
vt -0.801615 1.880004
vt -0.801615 2.000597
vt -0.525781 1.673026
vt -0.525781 1.998955
vt 2.071430 -0.276315
vt 1.978886 -0.276315
vt 2.099479 -0.224061
vt 1.978886 -0.224061
vt -0.801615 2.000472
vt -0.801615 1.880483
vt 0.002897 -1.651193
vt -1.609797 -1.651193
vn 0.0465 0.6387 -0.7680
vn 0.7071 0.0000 -0.7071
vn 0.9850 0.0000 -0.1727
vn 0.1727 0.0000 -0.9850
vn 0.0006 -0.0006 1.0000
vn -1.0000 -0.0000 0.0000
vn 0.4853 0.7273 -0.4853
vn 0.0000 -1.0000 0.0000
vn 0.7605 0.6468 -0.0566
vn 0.0000 0.0000 1.0000
vn 0.0000 1.0000 0.0000
vn -0.7071 0.7071 0.0000
vn 0.5000 0.7071 -0.5000
vn 0.1221 0.7071 -0.6965
vn 0.6965 0.7071 -0.1222
vn 0.0000 0.7071 0.7071
vn -1.0000 -0.0005 -0.0005
vn 0.0005 -0.0005 1.0000
vn 0.6475 0.4017 -0.6475
vn 0.1612 0.3413 -0.9260
vn 0.9260 0.3413 -0.1612
vn 0.0000 0.0000 -1.0000
vn 1.0000 -0.0000 0.0000
vn 0.0000 0.3503 0.9366
vn 0.0000 -0.9821 0.1885
vn 0.0000 -0.8129 0.5824
vn 0.0000 -0.3503 0.9366
vn 0.0000 0.3503 -0.9366
vn 0.0000 -0.9821 -0.1885
vn 0.0000 -0.8129 -0.5824
vn 0.0000 -0.3503 -0.9366
vn -0.7071 0.0000 0.7071
vn -0.7071 0.0074 0.7071
vn -0.4073 0.8175 0.4073
vn -0.7071 0.0001 0.7071
vn -0.7071 0.0009 0.7071
vn -1.0000 -0.0006 -0.0006
usemtl plaster
s off
f 1/1/1 22/2/1 29/3/1 3/4/1
f 27/5/2 30/6/2 8/7/2 5/8/2
f 9/9/2 12/10/2 17/11/2 20/12/2
f 25/13/3 27/5/3 5/8/3 6/14/3
f 30/15/4 21/16/4 7/17/4 8/18/4
f 57/19/5 55/20/5 2/21/5 24/22/5 26/23/5
f 11/24/6 61/25/6 64/26/6 14/27/6
f 12/28/4 11/29/4 14/30/4 17/31/4
f 10/32/3 9/9/3 20/12/3 15/33/3
f 28/34/7 4/35/7 3/36/7 29/37/7
f 59/38/6 7/39/6 21/40/6 23/41/6 58/42/6
f 2/43/8 55/44/8 56/45/8 1/46/8 3/47/8 4/48/8 43/49/8 44/50/8 41/51/8 42/52/8
f 43/53/9 4/54/9 28/55/9 24/56/9 2/57/9 42/58/9 45/59/9 46/60/9 48/61/9 47/62/9 49/63/9 53/64/9 50/65/9 54/66/9 52/67/9 51/68/9
f 60/69/10 6/70/10 10/71/10 62/72/10
f 5/8/2 8/7/2 12/10/2 9/9/2
f 8/18/4 7/17/4 11/29/4 12/28/4
f 62/72/10 10/71/10 15/73/10 63/74/10
f 7/39/6 59/38/6 61/25/6 11/24/6
f 6/14/3 5/8/3 9/9/3 10/32/3
f 13/75/11 65/76/11 66/77/11 16/78/11 19/79/11 18/80/11
f 65/76/12 13/75/12 14/81/12 64/82/12
f 18/80/13 19/79/13 20/83/13 17/84/13
f 13/85/14 18/86/14 17/31/14 14/30/14
f 19/87/15 16/88/15 15/33/15 20/12/15
f 16/78/16 66/77/16 63/89/16 15/90/16
f 21/40/17 22/91/17 23/41/17
f 24/22/18 25/92/18 26/23/18
f 30/6/19 27/5/19 28/55/19 29/93/19
f 21/16/20 30/15/20 29/3/20 22/2/20
f 27/5/21 25/13/21 24/56/21 28/55/21
f 26/23/10 25/92/10 6/70/10 60/69/10 57/19/10
f 45/94/22 31/95/22 32/96/22 46/97/22
f 33/98/8 37/99/8 53/100/8 49/101/8
f 44/102/23 36/103/23 38/104/23 40/105/23 39/106/23 37/107/23 33/108/23 35/109/23 34/110/23 32/111/23 31/112/23 41/113/23
f 38/114/10 36/115/10 51/116/10 52/117/10
f 51/116/24 36/115/24 44/118/24 43/119/24
f 37/99/25 39/120/25 50/121/25 53/100/25
f 39/120/26 40/122/26 54/123/26 50/121/26
f 54/124/27 40/125/27 38/114/27 52/117/27
f 31/95/28 45/94/28 42/126/28 41/127/28
f 47/128/29 35/129/29 33/98/29 49/101/29
f 48/130/30 34/131/30 35/129/30 47/128/30
f 46/97/31 32/96/31 34/132/31 48/133/31
f 55/20/32 57/19/32 58/42/32 56/134/32
f 62/72/33 63/74/33 64/26/33 61/25/33
f 63/89/34 66/77/34 65/76/34 64/82/34
f 60/69/35 62/72/35 61/25/35 59/38/35
f 57/19/36 60/69/36 59/38/36 58/42/36
f 1/135/37 56/134/37 58/42/37 23/41/37 22/91/37
